<?xml version="1.0" encoding="UTF-8" standalone="no"?>
<!DOCTYPE svg PUBLIC "-//W3C//DTD SVG 1.1//EN" "http://www.w3.org/Graphics/SVG/1.1/DTD/svg11.dtd">
<svg width="100%" height="100%" viewBox="0 0 500 400" version="1.1" xmlns="http://www.w3.org/2000/svg" xmlns:xlink="http://www.w3.org/1999/xlink" xml:space="preserve" xmlns:serif="http://www.serif.com/" style="fill-rule:evenodd;clip-rule:evenodd;stroke-linejoin:round;stroke-miterlimit:2;">
    <g transform="matrix(0.113236,0,0,0.103723,-476.508,-238.453)">
        <path d="M6580.77,2539.13L6580.77,2539.13C6607.1,2539.13 6628.48,2515.79 6628.48,2487.05C6628.48,2458.3 6607.1,2434.96 6580.77,2434.96L6580.77,2434.96C6554.44,2434.96 6533.06,2458.3 6533.06,2487.05C6533.06,2515.79 6554.44,2539.13 6580.77,2539.13ZM6771.6,2539.13L6771.6,2539.13C6797.93,2539.13 6819.31,2515.79 6819.31,2487.05C6819.31,2458.3 6797.93,2434.96 6771.6,2434.96L6771.6,2434.96C6745.27,2434.96 6723.89,2458.3 6723.89,2487.05C6723.89,2515.79 6745.27,2539.13 6771.6,2539.13ZM6962.43,2539.13L6962.43,2539.13C6988.76,2539.13 7010.14,2515.79 7010.14,2487.05C7010.14,2458.3 6988.76,2434.96 6962.43,2434.96L6962.43,2434.96C6936.1,2434.96 6914.72,2458.3 6914.72,2487.05C6914.72,2515.79 6936.1,2539.13 6962.43,2539.13ZM6389.94,2539.13L6389.94,2539.13C6416.27,2539.13 6437.65,2515.79 6437.65,2487.05C6437.65,2458.3 6416.27,2434.96 6389.94,2434.96L6389.94,2434.96C6363.61,2434.96 6342.23,2458.3 6342.23,2487.05C6342.23,2515.79 6363.61,2539.13 6389.94,2539.13ZM7344.1,2539.13L7344.1,2539.13C7370.43,2539.13 7391.8,2515.79 7391.8,2487.05C7391.8,2458.3 7370.43,2434.96 7344.1,2434.96L7344.1,2434.96C7317.76,2434.96 7296.39,2458.3 7296.39,2487.05C7296.39,2515.79 7317.76,2539.13 7344.1,2539.13ZM7534.93,2539.13L7534.93,2539.13C7561.26,2539.13 7582.64,2515.79 7582.64,2487.05C7582.64,2458.3 7561.26,2434.96 7534.93,2434.96L7534.93,2434.96C7508.6,2434.96 7487.22,2458.3 7487.22,2487.05C7487.22,2515.79 7508.6,2539.13 7534.93,2539.13ZM7153.26,2539.13L7153.26,2539.13C7179.6,2539.13 7200.97,2515.79 7200.97,2487.05C7200.97,2458.3 7179.6,2434.96 7153.26,2434.96L7153.26,2434.96C7126.93,2434.96 7105.56,2458.3 7105.56,2487.05C7105.56,2515.79 7126.93,2539.13 7153.26,2539.13ZM7725.76,2539.13L7725.76,2539.13C7752.09,2539.13 7773.47,2515.79 7773.47,2487.05C7773.47,2458.3 7752.09,2434.96 7725.76,2434.96L7725.76,2434.96C7699.43,2434.96 7678.05,2458.3 7678.05,2487.05C7678.05,2515.79 7699.43,2539.13 7725.76,2539.13ZM7916.59,2539.13L7916.59,2539.13C7942.92,2539.13 7964.3,2515.79 7964.3,2487.05C7964.3,2458.3 7942.92,2434.96 7916.59,2434.96L7916.59,2434.96C7890.26,2434.96 7868.88,2458.3 7868.88,2487.05C7868.88,2515.79 7890.26,2539.13 7916.59,2539.13ZM8298.25,2539.13L8298.25,2539.13C8324.58,2539.13 8345.96,2515.79 8345.96,2487.05C8345.96,2458.3 8324.58,2434.96 8298.25,2434.96L8298.25,2434.96C8271.92,2434.96 8250.54,2458.3 8250.54,2487.05C8250.54,2515.79 8271.92,2539.13 8298.25,2539.13ZM8489.08,2539.13L8489.08,2539.13C8515.41,2539.13 8536.79,2515.79 8536.79,2487.05C8536.79,2458.3 8515.41,2434.96 8489.08,2434.96L8489.08,2434.96C8462.75,2434.96 8441.37,2458.3 8441.37,2487.05C8441.37,2515.79 8462.75,2539.13 8489.08,2539.13ZM8107.42,2539.13L8107.42,2539.13C8133.75,2539.13 8155.13,2515.79 8155.13,2487.05C8155.13,2458.3 8133.75,2434.96 8107.42,2434.96L8107.42,2434.96C8081.09,2434.96 8059.71,2458.3 8059.71,2487.05C8059.71,2515.79 8081.09,2539.13 8107.42,2539.13Z" style="fill:white;"/>
    </g>
    <g transform="matrix(0.113236,0,0,0.103723,-487.164,-219.335)">
        <path d="M6580.77,2539.13L6580.77,2539.13C6607.1,2539.13 6628.48,2515.79 6628.48,2487.05C6628.48,2458.3 6607.1,2434.96 6580.77,2434.96L6580.77,2434.96C6554.44,2434.96 6533.06,2458.3 6533.06,2487.05C6533.06,2515.79 6554.44,2539.13 6580.77,2539.13ZM6771.6,2539.13L6771.6,2539.13C6797.93,2539.13 6819.31,2515.79 6819.31,2487.05C6819.31,2458.3 6797.93,2434.96 6771.6,2434.96L6771.6,2434.96C6745.27,2434.96 6723.89,2458.3 6723.89,2487.05C6723.89,2515.79 6745.27,2539.13 6771.6,2539.13ZM6962.43,2539.13L6962.43,2539.13C6988.76,2539.13 7010.14,2515.79 7010.14,2487.05C7010.14,2458.3 6988.76,2434.96 6962.43,2434.96L6962.43,2434.96C6936.1,2434.96 6914.72,2458.3 6914.72,2487.05C6914.72,2515.79 6936.1,2539.13 6962.43,2539.13ZM6389.94,2539.13L6389.94,2539.13C6416.27,2539.13 6437.65,2515.79 6437.65,2487.05C6437.65,2458.3 6416.27,2434.96 6389.94,2434.96L6389.94,2434.96C6363.61,2434.96 6342.23,2458.3 6342.23,2487.05C6342.23,2515.79 6363.61,2539.13 6389.94,2539.13ZM7344.1,2539.13L7344.1,2539.13C7370.43,2539.13 7391.8,2515.79 7391.8,2487.05C7391.8,2458.3 7370.43,2434.96 7344.1,2434.96L7344.1,2434.96C7317.76,2434.96 7296.39,2458.3 7296.39,2487.05C7296.39,2515.79 7317.76,2539.13 7344.1,2539.13ZM7534.93,2539.13L7534.93,2539.13C7561.26,2539.13 7582.64,2515.79 7582.64,2487.05C7582.64,2458.3 7561.26,2434.96 7534.93,2434.96L7534.93,2434.96C7508.6,2434.96 7487.22,2458.3 7487.22,2487.05C7487.22,2515.79 7508.6,2539.13 7534.93,2539.13ZM7153.26,2539.13L7153.26,2539.13C7179.6,2539.13 7200.97,2515.79 7200.97,2487.05C7200.97,2458.3 7179.6,2434.96 7153.26,2434.96L7153.26,2434.96C7126.93,2434.96 7105.56,2458.3 7105.56,2487.05C7105.56,2515.79 7126.93,2539.13 7153.26,2539.13ZM7725.76,2539.13L7725.76,2539.13C7752.09,2539.13 7773.47,2515.79 7773.47,2487.05C7773.47,2458.3 7752.09,2434.96 7725.76,2434.96L7725.76,2434.96C7699.43,2434.96 7678.05,2458.3 7678.05,2487.05C7678.05,2515.79 7699.43,2539.13 7725.76,2539.13ZM7916.59,2539.13L7916.59,2539.13C7942.92,2539.13 7964.3,2515.79 7964.3,2487.05C7964.3,2458.3 7942.92,2434.96 7916.59,2434.96L7916.59,2434.96C7890.26,2434.96 7868.88,2458.3 7868.88,2487.05C7868.88,2515.79 7890.26,2539.13 7916.59,2539.13ZM8298.25,2539.13L8298.25,2539.13C8324.58,2539.13 8345.96,2515.79 8345.96,2487.05C8345.96,2458.3 8324.58,2434.96 8298.25,2434.96L8298.25,2434.96C8271.92,2434.96 8250.54,2458.3 8250.54,2487.05C8250.54,2515.79 8271.92,2539.13 8298.25,2539.13ZM8489.08,2539.13L8489.08,2539.13C8515.41,2539.13 8536.79,2515.79 8536.79,2487.05C8536.79,2458.3 8515.41,2434.96 8489.08,2434.96L8489.08,2434.96C8462.75,2434.96 8441.37,2458.3 8441.37,2487.05C8441.37,2515.79 8462.75,2539.13 8489.08,2539.13ZM8107.42,2539.13L8107.42,2539.13C8133.75,2539.13 8155.13,2515.79 8155.13,2487.05C8155.13,2458.3 8133.75,2434.96 8107.42,2434.96L8107.42,2434.96C8081.09,2434.96 8059.71,2458.3 8059.71,2487.05C8059.71,2515.79 8081.09,2539.13 8107.42,2539.13Z" style="fill:white;"/>
    </g>
    <g transform="matrix(0.113236,0,0,0.103723,-703.558,-0.567816)">
        <path d="M6580.77,2539.13L6580.77,2539.13C6607.1,2539.13 6628.48,2515.79 6628.48,2487.05C6628.48,2458.3 6607.1,2434.96 6580.77,2434.96L6580.77,2434.96C6554.44,2434.96 6533.06,2458.3 6533.06,2487.05C6533.06,2515.79 6554.44,2539.13 6580.77,2539.13ZM6771.6,2539.13L6771.6,2539.13C6797.93,2539.13 6819.31,2515.79 6819.31,2487.05C6819.31,2458.3 6797.93,2434.96 6771.6,2434.96L6771.6,2434.96C6745.27,2434.96 6723.89,2458.3 6723.89,2487.05C6723.89,2515.79 6745.27,2539.13 6771.6,2539.13ZM6962.43,2539.13L6962.43,2539.13C6988.76,2539.13 7010.14,2515.79 7010.14,2487.05C7010.14,2458.3 6988.76,2434.96 6962.43,2434.96L6962.43,2434.96C6936.1,2434.96 6914.72,2458.3 6914.72,2487.05C6914.72,2515.79 6936.1,2539.13 6962.43,2539.13ZM6389.94,2539.13L6389.94,2539.13C6416.27,2539.13 6437.65,2515.79 6437.65,2487.05C6437.65,2458.3 6416.27,2434.96 6389.94,2434.96L6389.94,2434.96C6363.61,2434.96 6342.23,2458.3 6342.23,2487.05C6342.23,2515.79 6363.61,2539.13 6389.94,2539.13ZM7344.1,2539.13L7344.1,2539.13C7370.43,2539.13 7391.8,2515.79 7391.8,2487.05C7391.8,2458.3 7370.43,2434.96 7344.1,2434.96L7344.1,2434.96C7317.76,2434.96 7296.39,2458.3 7296.39,2487.05C7296.39,2515.79 7317.76,2539.13 7344.1,2539.13ZM7534.93,2539.13L7534.93,2539.13C7561.26,2539.13 7582.64,2515.79 7582.64,2487.05C7582.64,2458.3 7561.26,2434.96 7534.93,2434.96L7534.93,2434.96C7508.6,2434.96 7487.22,2458.3 7487.22,2487.05C7487.22,2515.79 7508.6,2539.13 7534.93,2539.13ZM7153.26,2539.13L7153.26,2539.13C7179.6,2539.13 7200.97,2515.79 7200.97,2487.05C7200.97,2458.3 7179.6,2434.96 7153.26,2434.96L7153.26,2434.96C7126.93,2434.96 7105.56,2458.3 7105.56,2487.05C7105.56,2515.79 7126.93,2539.13 7153.26,2539.13ZM7725.76,2539.13L7725.76,2539.13C7752.09,2539.13 7773.47,2515.79 7773.47,2487.05C7773.47,2458.3 7752.09,2434.96 7725.76,2434.96L7725.76,2434.96C7699.43,2434.96 7678.05,2458.3 7678.05,2487.05C7678.05,2515.79 7699.43,2539.13 7725.76,2539.13ZM7916.59,2539.13L7916.59,2539.13C7942.92,2539.13 7964.3,2515.79 7964.3,2487.05C7964.3,2458.3 7942.92,2434.96 7916.59,2434.96L7916.59,2434.96C7890.26,2434.96 7868.88,2458.3 7868.88,2487.05C7868.88,2515.79 7890.26,2539.13 7916.59,2539.13ZM8298.25,2539.13L8298.25,2539.13C8324.58,2539.13 8345.96,2515.79 8345.96,2487.05C8345.96,2458.3 8324.58,2434.96 8298.25,2434.96L8298.25,2434.96C8271.92,2434.96 8250.54,2458.3 8250.54,2487.05C8250.54,2515.79 8271.92,2539.13 8298.25,2539.13ZM8489.08,2539.13L8489.08,2539.13C8515.41,2539.13 8536.79,2515.79 8536.79,2487.05C8536.79,2458.3 8515.41,2434.96 8489.08,2434.96L8489.08,2434.96C8462.75,2434.96 8441.37,2458.3 8441.37,2487.05C8441.37,2515.79 8462.75,2539.13 8489.08,2539.13ZM8107.42,2539.13L8107.42,2539.13C8133.75,2539.13 8155.13,2515.79 8155.13,2487.05C8155.13,2458.3 8133.75,2434.96 8107.42,2434.96L8107.42,2434.96C8081.09,2434.96 8059.71,2458.3 8059.71,2487.05C8059.71,2515.79 8081.09,2539.13 8107.42,2539.13Z" style="fill:white;"/>
    </g>
    <g transform="matrix(0.103723,0,0,0.103723,-524.728,-95.0024)">
        <path d="M9019.29,3347.46L9196.63,3346.02C9215.79,3345.86 9233.49,3356.24 9242.71,3373.04C9251.93,3389.85 9251.18,3410.35 9240.76,3426.43L8477.17,4650.95C8466.34,4668.87 8446.73,4679.61 8425.79,4679.09C8425.79,4679.09 8203.12,4678.99 8204.04,4677.41C8327.98,4464.03 9021.25,3347.94 9019.62,3347.54L9019.29,3347.46ZM8910.06,3197.99L8813.38,3371.38L8595.69,3372.93C8595.69,3372.93 8693.17,3197.96 8693.17,3197.96L8910.06,3197.99Z" style="fill:white;"/>
    </g>
    <g transform="matrix(0.103723,0,0,0.103723,-524.728,-95.0024)">
        <path d="M9579.54,3221.76C9608.21,3221.62 9606.96,1473.31 9578.29,1473.17L9768.24,1473.14C9796.91,1473.28 9820.08,1496.56 9820.08,1525.23L9821.33,3169.71C9821.33,3198.38 9798.16,3221.66 9769.49,3221.79L9579.54,3221.76Z" style="fill:white;"/>
    </g>
    <g transform="matrix(0.103723,0,0,0.103723,-524.728,-95.0024)">
        <path d="M9492.39,1576.2L9491.74,1576.16L9495.46,1576.16L9492.39,1576.2Z" style="fill:white;"/>
    </g>
    <g transform="matrix(0.103723,0,0,0.103723,-524.728,-95.0024)">
        <path d="M8210.99,4679.39C8204.07,4679.54 8197.05,4678.27 8190.32,4675.49C8167.12,4665.9 8154.06,4641.12 8159.26,4616.56C8159.26,4616.56 8343.8,3745.14 8343.8,3745.14C8209.04,3745.43 7909.69,3746.07 7909.69,3746.07C7890.33,3746.11 7872.55,3735.42 7863.52,3718.3C7854.48,3701.17 7855.69,3680.46 7866.65,3664.5L8164.78,3230.47L8164.78,3230.47L5349.87,3230.47C5321.11,3230.47 5297.79,3207.15 5297.79,3178.39L5297.79,1524.08C5297.79,1495.32 5321.11,1472 5349.87,1472L9580.84,1472C9584.37,1472 9587.82,1472.35 9591.15,1473.03L9591.47,1473.09C9615.14,1478 9632.92,1498.96 9632.92,1524.08L9632.92,3168.45C9632.92,3197.12 9609.75,3220.4 9581.08,3220.54L8706.11,3224.67C8706.11,3224.67 8642.82,3348.94 8642.82,3348.94L8833.58,3347.39L9019.29,3347.46C9033.36,3350.82 9045.61,3359.99 9052.76,3373.01C9061.98,3389.81 9061.23,3410.32 9050.8,3426.4C9050.8,3426.4 8253.92,4655.68 8253.92,4655.68C8244.3,4670.52 8228.18,4679.04 8211.39,4679.38L8210.99,4679.39ZM8192.98,4671.51C8193.34,4671.75 8193.7,4671.98 8194.06,4672.21C8193.7,4671.98 8193.34,4671.75 8192.98,4671.51ZM8185.17,4665.36L8185.2,4665.39L8185.17,4665.36L8185.02,4665.22L8185.17,4665.36ZM8184.35,4664.57L8184.46,4664.68L8184.35,4664.57L8184.22,4664.45L8184.35,4664.57ZM8182.34,4662.52C8182.85,4663.07 8183.37,4663.61 8183.9,4664.13C8183.37,4663.61 8182.85,4663.07 8182.34,4662.52ZM8180.84,4660.84C8181.04,4661.07 8181.24,4661.3 8181.44,4661.53L8181.19,4661.24C8181.07,4661.11 8180.95,4660.98 8180.84,4660.84ZM8557.92,3453.8L8910.76,3450.93C8792.18,3633.86 8500.39,4083.98 8319.4,4363.17C8377.77,4087.51 8459.06,3703.71 8459.06,3703.71C8462.31,3688.32 8458.44,3672.29 8448.53,3660.08C8438.61,3647.87 8423.72,3640.8 8407.99,3640.83L8008.69,3641.69C8008.69,3641.69 8306.67,3207.87 8306.67,3207.87C8317.62,3191.93 8318.84,3171.24 8309.83,3154.13C8300.83,3137.01 8283.08,3126.3 8263.74,3126.3L5401.95,3126.3C5401.95,3126.3 5401.95,1851.64 5401.95,1576.16L9528.75,1576.16C9528.75,1576.16 9528.75,3116.62 9528.75,3116.62C9528.75,3116.62 8673.86,3120.66 8673.86,3120.66C8654.36,3120.75 8636.54,3131.73 8627.69,3149.1L8511.08,3378.08C8502.82,3394.29 8503.63,3413.64 8513.2,3429.11C8522.77,3444.59 8539.72,3453.95 8557.92,3453.8ZM9462.2,1566.54L9462.27,1566.59L9462.18,1566.53L9462.2,1566.54Z" style="fill:white;"/>
    </g>
    <g transform="matrix(0.103723,0,0,0.103723,-179.399,-403.812)">
        <path d="M2283.36,5476.34C2298.03,5481 2313.36,5484.67 2329.36,5487.34C2342.69,5490.67 2357.86,5493.34 2374.86,5495.34C2391.86,5497.34 2409.03,5498.34 2426.36,5498.34C2457.03,5498.34 2472.36,5487 2472.36,5464.34C2472.36,5455.67 2467.69,5446.84 2458.36,5437.84C2449.03,5428.84 2437.19,5418.84 2422.86,5407.84C2408.53,5396.84 2393.19,5384.67 2376.86,5371.34C2360.53,5358 2345.19,5342.67 2330.86,5325.34C2316.53,5308 2304.69,5288.5 2295.36,5266.84C2286.03,5245.17 2281.36,5220.34 2281.36,5192.34C2281.36,5161 2287.03,5133.34 2298.36,5109.34C2309.69,5085.34 2325.36,5065.34 2345.36,5049.34C2365.36,5033.34 2388.86,5021.17 2415.86,5012.84C2442.86,5004.5 2471.69,5000.34 2502.36,5000.34C2518.36,5000.34 2534.36,5001.17 2550.36,5002.84C2566.36,5004.5 2580.69,5006 2593.36,5007.34C2608.03,5009.34 2622.36,5011.34 2636.36,5013.34L2636.36,5200.34C2631.03,5199.67 2625.03,5199 2618.36,5198.34C2613.03,5197.67 2607.03,5197 2600.36,5196.34C2593.69,5195.67 2586.69,5195.34 2579.36,5195.34C2575.36,5195.34 2570.36,5195.5 2564.36,5195.84C2558.36,5196.17 2552.69,5197 2547.36,5198.34C2542.03,5199.67 2537.36,5202 2533.36,5205.34C2529.36,5208.67 2527.36,5213.34 2527.36,5219.34C2527.36,5224.67 2531.86,5231.34 2540.86,5239.34C2549.86,5247.34 2560.86,5256.67 2573.86,5267.34C2586.86,5278 2601.19,5290.34 2616.86,5304.34C2632.53,5318.34 2646.86,5334.34 2659.86,5352.34C2672.86,5370.34 2683.86,5390.67 2692.86,5413.34C2701.86,5436 2706.36,5461.34 2706.36,5489.34C2706.36,5518.67 2701.69,5546.17 2692.36,5571.84C2683.03,5597.5 2668.53,5619.84 2648.86,5638.84C2629.19,5657.84 2604.03,5672.84 2573.36,5683.84C2542.69,5694.84 2506.36,5700.34 2464.36,5700.34C2439.03,5700.34 2415.53,5699.17 2393.86,5696.84C2372.19,5694.5 2353.03,5691.67 2336.36,5688.34C2317.03,5685 2299.36,5681 2283.36,5676.34L2283.36,5476.34Z" style="fill:white;fill-rule:nonzero;"/>
        <path d="M3024.36,5700.34C2982.36,5700.34 2944.36,5695 2910.36,5684.34C2876.36,5673.67 2847.36,5657.67 2823.36,5636.34C2799.36,5615 2780.86,5588 2767.86,5555.34C2754.86,5522.67 2748.36,5484.34 2748.36,5440.34L2748.36,5016.34L2961.36,5016.34L2961.36,5431.34C2961.36,5454.67 2966.19,5472.5 2975.86,5484.84C2985.53,5497.17 3001.69,5503.34 3024.36,5503.34C3047.03,5503.34 3063.19,5497.17 3072.86,5484.84C3082.53,5472.5 3087.36,5454.67 3087.36,5431.34L3087.36,5016.34L3301.36,5016.34L3301.36,5440.34C3301.36,5484.34 3294.86,5522.67 3281.86,5555.34C3268.86,5588 3250.19,5615 3225.86,5636.34C3201.53,5657.67 3172.36,5673.67 3138.36,5684.34C3104.36,5695 3066.36,5700.34 3024.36,5700.34Z" style="fill:white;fill-rule:nonzero;"/>
        <path d="M3887.36,5270.34C3887.36,5316.34 3879.36,5355.5 3863.36,5387.84C3847.36,5420.17 3825.53,5446.34 3797.86,5466.34C3770.19,5486.34 3737.86,5501 3700.86,5510.34C3663.86,5519.67 3624.03,5524.34 3581.36,5524.34L3581.36,5683.34L3368.36,5683.34L3368.36,5016.34L3581.36,5016.34C3624.03,5016.34 3663.86,5021 3700.86,5030.34C3737.86,5039.67 3770.19,5054.34 3797.86,5074.34C3825.53,5094.34 3847.36,5120.5 3863.36,5152.84C3879.36,5185.17 3887.36,5224.34 3887.36,5270.34ZM3581.36,5344.34L3590.36,5344.34C3618.36,5344.34 3638.53,5337.84 3650.86,5324.84C3663.19,5311.84 3669.36,5293.67 3669.36,5270.34C3669.36,5247 3663.19,5228.84 3650.86,5215.84C3638.53,5202.84 3618.36,5196.34 3590.36,5196.34L3581.36,5196.34L3581.36,5344.34Z" style="fill:white;fill-rule:nonzero;"/>
        <path d="M3937.36,5016.34L4330.36,5016.34L4330.36,5191.34L4150.36,5191.34L4150.36,5265.34L4327.36,5265.34L4327.36,5431.34L4150.36,5431.34L4150.36,5508.34L4337.36,5508.34L4337.36,5683.34L3937.36,5683.34L3937.36,5016.34Z" style="fill:white;fill-rule:nonzero;"/>
        <path d="M4397.36,5016.34L4627.36,5016.34C4670.03,5016.34 4709.53,5022 4745.86,5033.34C4782.19,5044.67 4813.69,5061.34 4840.36,5083.34C4867.03,5105.34 4887.86,5132.5 4902.86,5164.84C4917.86,5197.17 4925.36,5234.34 4925.36,5276.34C4925.36,5309.67 4920.69,5338 4911.36,5361.34C4902.03,5384.67 4891.69,5404 4880.36,5419.34C4867.03,5436.67 4852.03,5451.34 4835.36,5463.34L4960.36,5683.34L4710.36,5683.34L4610.36,5514.34L4610.36,5683.34L4397.36,5683.34L4397.36,5016.34ZM4610.36,5344.34L4621.36,5344.34C4646.69,5344.34 4668.19,5338.67 4685.86,5327.34C4703.53,5316 4712.36,5297 4712.36,5270.34C4712.36,5243.67 4703.53,5224.67 4685.86,5213.34C4668.19,5202 4646.69,5196.34 4621.36,5196.34L4610.36,5196.34L4610.36,5344.34Z" style="fill:white;fill-rule:nonzero;"/>
        <path d="M4980.36,5016.34L5373.36,5016.34L5373.36,5191.34L5193.36,5191.34L5193.36,5265.34L5370.36,5265.34L5370.36,5431.34L5193.36,5431.34L5193.36,5508.34L5380.36,5508.34L5380.36,5683.34L4980.36,5683.34L4980.36,5016.34Z" style="fill:white;fill-rule:nonzero;"/>
        <path d="M5440.36,5683.34L5440.36,5016.34L5625.36,5016.34C5688.03,5016.34 5743.86,5023.34 5792.86,5037.34C5841.86,5051.34 5883.19,5072.34 5916.86,5100.34C5950.53,5128.34 5976.19,5163.17 5993.86,5204.84C6011.53,5246.5 6020.36,5294.67 6020.36,5349.34C6020.36,5404 6011.53,5452.17 5993.86,5493.84C5976.19,5535.5 5950.53,5570.34 5916.86,5598.34C5883.19,5626.34 5841.86,5647.5 5792.86,5661.84C5743.86,5676.17 5688.03,5683.34 5625.36,5683.34L5440.36,5683.34ZM5653.36,5493.34C5703.36,5493.34 5742.03,5481.5 5769.36,5457.84C5796.69,5434.17 5810.36,5398 5810.36,5349.34C5810.36,5300.67 5796.69,5264.67 5769.36,5241.34C5742.03,5218 5703.36,5206.34 5653.36,5206.34L5653.36,5493.34Z" style="fill:white;fill-rule:nonzero;"/>
    </g>
    <g transform="matrix(0.113236,0,0,0.103723,-714.215,18.5507)">
        <path d="M6580.77,2539.13L6580.77,2539.13C6607.1,2539.13 6628.48,2515.79 6628.48,2487.05C6628.48,2458.3 6607.1,2434.96 6580.77,2434.96L6580.77,2434.96C6554.44,2434.96 6533.06,2458.3 6533.06,2487.05C6533.06,2515.79 6554.44,2539.13 6580.77,2539.13ZM6771.6,2539.13L6771.6,2539.13C6797.93,2539.13 6819.31,2515.79 6819.31,2487.05C6819.31,2458.3 6797.93,2434.96 6771.6,2434.96L6771.6,2434.96C6745.27,2434.96 6723.89,2458.3 6723.89,2487.05C6723.89,2515.79 6745.27,2539.13 6771.6,2539.13ZM6962.43,2539.13L6962.43,2539.13C6988.76,2539.13 7010.14,2515.79 7010.14,2487.05C7010.14,2458.3 6988.76,2434.96 6962.43,2434.96L6962.43,2434.96C6936.1,2434.96 6914.72,2458.3 6914.72,2487.05C6914.72,2515.79 6936.1,2539.13 6962.43,2539.13ZM6389.94,2539.13L6389.94,2539.13C6416.27,2539.13 6437.65,2515.79 6437.65,2487.05C6437.65,2458.3 6416.27,2434.96 6389.94,2434.96L6389.94,2434.96C6363.61,2434.96 6342.23,2458.3 6342.23,2487.05C6342.23,2515.79 6363.61,2539.13 6389.94,2539.13ZM7344.1,2539.13L7344.1,2539.13C7370.43,2539.13 7391.8,2515.79 7391.8,2487.05C7391.8,2458.3 7370.43,2434.96 7344.1,2434.96L7344.1,2434.96C7317.76,2434.96 7296.39,2458.3 7296.39,2487.05C7296.39,2515.79 7317.76,2539.13 7344.1,2539.13ZM7534.93,2539.13L7534.93,2539.13C7561.26,2539.13 7582.64,2515.79 7582.64,2487.05C7582.64,2458.3 7561.26,2434.96 7534.93,2434.96L7534.93,2434.96C7508.6,2434.96 7487.22,2458.3 7487.22,2487.05C7487.22,2515.79 7508.6,2539.13 7534.93,2539.13ZM7153.26,2539.13L7153.26,2539.13C7179.6,2539.13 7200.97,2515.79 7200.97,2487.05C7200.97,2458.3 7179.6,2434.96 7153.26,2434.96L7153.26,2434.96C7126.93,2434.96 7105.56,2458.3 7105.56,2487.05C7105.56,2515.79 7126.93,2539.13 7153.26,2539.13ZM7725.76,2539.13L7725.76,2539.13C7752.09,2539.13 7773.47,2515.79 7773.47,2487.05C7773.47,2458.3 7752.09,2434.96 7725.76,2434.96L7725.76,2434.96C7699.43,2434.96 7678.05,2458.3 7678.05,2487.05C7678.05,2515.79 7699.43,2539.13 7725.76,2539.13ZM7916.59,2539.13L7916.59,2539.13C7942.92,2539.13 7964.3,2515.79 7964.3,2487.05C7964.3,2458.3 7942.92,2434.96 7916.59,2434.96L7916.59,2434.96C7890.26,2434.96 7868.88,2458.3 7868.88,2487.05C7868.88,2515.79 7890.26,2539.13 7916.59,2539.13ZM8298.25,2539.13L8298.25,2539.13C8324.58,2539.13 8345.96,2515.79 8345.96,2487.05C8345.96,2458.3 8324.58,2434.96 8298.25,2434.96L8298.25,2434.96C8271.92,2434.96 8250.54,2458.3 8250.54,2487.05C8250.54,2515.79 8271.92,2539.13 8298.25,2539.13ZM8489.08,2539.13L8489.08,2539.13C8515.41,2539.13 8536.79,2515.79 8536.79,2487.05C8536.79,2458.3 8515.41,2434.96 8489.08,2434.96L8489.08,2434.96C8462.75,2434.96 8441.37,2458.3 8441.37,2487.05C8441.37,2515.79 8462.75,2539.13 8489.08,2539.13ZM8107.42,2539.13L8107.42,2539.13C8133.75,2539.13 8155.13,2515.79 8155.13,2487.05C8155.13,2458.3 8133.75,2434.96 8107.42,2434.96L8107.42,2434.96C8081.09,2434.96 8059.71,2458.3 8059.71,2487.05C8059.71,2515.79 8081.09,2539.13 8107.42,2539.13Z" style="fill:white;"/>
    </g>
</svg>
