<?xml version="1.0" encoding="UTF-8"?>
<svg width="200px" height="200px" viewBox="0 0 200 200" version="1.1" xmlns="http://www.w3.org/2000/svg" xmlns:xlink="http://www.w3.org/1999/xlink">
    <title>Square</title>
    <g id="Square" stroke="none" stroke-width="1" fill="none" fill-rule="evenodd">
        <rect fill="#FFFFFF" x="0" y="0" width="200" height="200"></rect>
        <g id="supered_pp" transform="translate(19.000000, 38.000000)">
            <g id="Group" transform="translate(79.000000, 0.000000)" fill="#E5097F">
                <path d="M9.02177202,3 L9.02177202,3 C10.0175935,3 10.8262021,2.32782951 10.8262021,1.500144 C10.8262021,0.672170491 10.0175935,0 9.02177202,0 L9.02177202,0 C8.02595053,0 7.21734197,0.672170491 7.21734197,1.500144 C7.21734197,2.32782951 8.02595053,3 9.02177202,3 Z M16.239114,3 L16.239114,3 C17.2349355,3 18.043544,2.32782951 18.043544,1.500144 C18.043544,0.672170491 17.2349355,0 16.239114,0 L16.239114,0 C15.2432925,0 14.4346839,0.672170491 14.4346839,1.500144 C14.4346839,2.32782951 15.2432925,3 16.239114,3 Z M23.456456,3 L23.456456,3 C24.4522774,3 25.260886,2.32782951 25.260886,1.500144 C25.260886,0.672170491 24.4522774,0 23.456456,0 L23.456456,0 C22.4606345,0 21.6520259,0.672170491 21.6520259,1.500144 C21.6520259,2.32782951 22.4606345,3 23.456456,3 Z M1.80443005,3 L1.80443005,3 C2.80025153,3 3.60886009,2.32782951 3.60886009,1.500144 C3.60886009,0.672170491 2.80025153,0 1.80443005,0 L1.80443005,0 C0.808608559,0 1.42108547e-14,0.672170491 1.42108547e-14,1.500144 C1.42108547e-14,2.32782951 0.808608559,3 1.80443005,3 Z M37.8915181,3 L37.8915181,3 C38.8873396,3 39.69557,2.32782951 39.69557,1.500144 C39.69557,0.672170491 38.8873396,0 37.8915181,0 L37.8915181,0 C36.8953184,0 36.0870881,0.672170491 36.0870881,1.500144 C36.0870881,2.32782951 36.8953184,3 37.8915181,3 Z M45.1088601,3 L45.1088601,3 C46.1046816,3 46.9132901,2.32782951 46.9132901,1.500144 C46.9132901,0.672170491 46.1046816,0 45.1088601,0 L45.1088601,0 C44.1130386,0 43.30443,0.672170491 43.30443,1.500144 C43.30443,2.32782951 44.1130386,3 45.1088601,3 Z M30.6737979,3 L30.6737979,3 C31.6699976,3 32.478228,2.32782951 32.478228,1.500144 C32.478228,0.672170491 31.6699976,0 30.6737979,0 L30.6737979,0 C29.6779765,0 28.8697461,0.672170491 28.8697461,1.500144 C28.8697461,2.32782951 29.6779765,3 30.6737979,3 Z M52.3262021,3 L52.3262021,3 C53.3220235,3 54.1306321,2.32782951 54.1306321,1.500144 C54.1306321,0.672170491 53.3220235,0 52.3262021,0 L52.3262021,0 C51.3303806,0 50.521772,0.672170491 50.521772,1.500144 C50.521772,2.32782951 51.3303806,3 52.3262021,3 Z M59.543544,3 L59.543544,3 C60.5393655,3 61.3479741,2.32782951 61.3479741,1.500144 C61.3479741,0.672170491 60.5393655,0 59.543544,0 L59.543544,0 C58.5477226,0 57.739114,0.672170491 57.739114,1.500144 C57.739114,2.32782951 58.5477226,3 59.543544,3 Z M73.978228,3 L73.978228,3 C74.9740495,3 75.782658,2.32782951 75.782658,1.500144 C75.782658,0.672170491 74.9740495,0 73.978228,0 L73.978228,0 C72.9824065,0 72.1737979,0.672170491 72.1737979,1.500144 C72.1737979,2.32782951 72.9824065,3 73.978228,3 Z M81.19557,3 L81.19557,3 C82.1913914,3 83,2.32782951 83,1.500144 C83,0.672170491 82.1913914,0 81.19557,0 L81.19557,0 C80.1997485,0 79.3911399,0.672170491 79.3911399,1.500144 C79.3911399,2.32782951 80.1997485,3 81.19557,3 Z M66.760886,3 L66.760886,3 C67.7567075,3 68.5653161,2.32782951 68.5653161,1.500144 C68.5653161,0.672170491 67.7567075,0 66.760886,0 L66.760886,0 C65.7650645,0 64.956456,0.672170491 64.956456,1.500144 C64.956456,2.32782951 65.7650645,3 66.760886,3 Z" id="Shape"></path>
            </g>
            <g id="Group" transform="translate(75.000000, 6.000000)" fill="#E5097F">
                <path d="M9.02177202,3 L9.02177202,3 C10.0175935,3 10.8262021,2.32782951 10.8262021,1.500144 C10.8262021,0.672170491 10.0175935,0 9.02177202,0 L9.02177202,0 C8.02595053,0 7.21734197,0.672170491 7.21734197,1.500144 C7.21734197,2.32782951 8.02595053,3 9.02177202,3 Z M16.239114,3 L16.239114,3 C17.2349355,3 18.043544,2.32782951 18.043544,1.500144 C18.043544,0.672170491 17.2349355,0 16.239114,0 L16.239114,0 C15.2432925,0 14.4346839,0.672170491 14.4346839,1.500144 C14.4346839,2.32782951 15.2432925,3 16.239114,3 Z M23.456456,3 L23.456456,3 C24.4522774,3 25.260886,2.32782951 25.260886,1.500144 C25.260886,0.672170491 24.4522774,0 23.456456,0 L23.456456,0 C22.4606345,0 21.6520259,0.672170491 21.6520259,1.500144 C21.6520259,2.32782951 22.4606345,3 23.456456,3 Z M1.80443005,3 L1.80443005,3 C2.80025153,3 3.60886009,2.32782951 3.60886009,1.500144 C3.60886009,0.672170491 2.80025153,0 1.80443005,0 L1.80443005,0 C0.808608559,0 1.42108547e-14,0.672170491 1.42108547e-14,1.500144 C1.42108547e-14,2.32782951 0.808608559,3 1.80443005,3 Z M37.8915181,3 L37.8915181,3 C38.8873396,3 39.69557,2.32782951 39.69557,1.500144 C39.69557,0.672170491 38.8873396,0 37.8915181,0 L37.8915181,0 C36.8953184,0 36.0870881,0.672170491 36.0870881,1.500144 C36.0870881,2.32782951 36.8953184,3 37.8915181,3 Z M45.1088601,3 L45.1088601,3 C46.1046816,3 46.9132901,2.32782951 46.9132901,1.500144 C46.9132901,0.672170491 46.1046816,0 45.1088601,0 L45.1088601,0 C44.1130386,0 43.30443,0.672170491 43.30443,1.500144 C43.30443,2.32782951 44.1130386,3 45.1088601,3 Z M30.6737979,3 L30.6737979,3 C31.6699976,3 32.478228,2.32782951 32.478228,1.500144 C32.478228,0.672170491 31.6699976,0 30.6737979,0 L30.6737979,0 C29.6779765,0 28.8697461,0.672170491 28.8697461,1.500144 C28.8697461,2.32782951 29.6779765,3 30.6737979,3 Z M52.3262021,3 L52.3262021,3 C53.3220235,3 54.1306321,2.32782951 54.1306321,1.500144 C54.1306321,0.672170491 53.3220235,0 52.3262021,0 L52.3262021,0 C51.3303806,0 50.521772,0.672170491 50.521772,1.500144 C50.521772,2.32782951 51.3303806,3 52.3262021,3 Z M59.543544,3 L59.543544,3 C60.5393655,3 61.3479741,2.32782951 61.3479741,1.500144 C61.3479741,0.672170491 60.5393655,0 59.543544,0 L59.543544,0 C58.5477226,0 57.739114,0.672170491 57.739114,1.500144 C57.739114,2.32782951 58.5477226,3 59.543544,3 Z M73.978228,3 L73.978228,3 C74.9740495,3 75.782658,2.32782951 75.782658,1.500144 C75.782658,0.672170491 74.9740495,0 73.978228,0 L73.978228,0 C72.9824065,0 72.1737979,0.672170491 72.1737979,1.500144 C72.1737979,2.32782951 72.9824065,3 73.978228,3 Z M81.19557,3 L81.19557,3 C82.1913914,3 83,2.32782951 83,1.500144 C83,0.672170491 82.1913914,0 81.19557,0 L81.19557,0 C80.1997485,0 79.3911399,0.672170491 79.3911399,1.500144 C79.3911399,2.32782951 80.1997485,3 81.19557,3 Z M66.760886,3 L66.760886,3 C67.7567075,3 68.5653161,2.32782951 68.5653161,1.500144 C68.5653161,0.672170491 67.7567075,0 66.760886,0 L66.760886,0 C65.7650645,0 64.956456,0.672170491 64.956456,1.500144 C64.956456,2.32782951 65.7650645,3 66.760886,3 Z" id="Shape"></path>
            </g>
            <g id="Group" transform="translate(3.000000, 80.000000)" fill="#E5097F">
                <path d="M9.02177202,3 L9.02177202,3 C10.0175935,3 10.8262021,2.32782951 10.8262021,1.500144 C10.8262021,0.672170491 10.0175935,0 9.02177202,0 L9.02177202,0 C8.02595053,0 7.21734197,0.672170491 7.21734197,1.500144 C7.21734197,2.32782951 8.02595053,3 9.02177202,3 Z M16.239114,3 L16.239114,3 C17.2349355,3 18.043544,2.32782951 18.043544,1.500144 C18.043544,0.672170491 17.2349355,0 16.239114,0 L16.239114,0 C15.2432925,0 14.4346839,0.672170491 14.4346839,1.500144 C14.4346839,2.32782951 15.2432925,3 16.239114,3 Z M23.456456,3 L23.456456,3 C24.4522774,3 25.260886,2.32782951 25.260886,1.500144 C25.260886,0.672170491 24.4522774,0 23.456456,0 L23.456456,0 C22.4606345,0 21.6520259,0.672170491 21.6520259,1.500144 C21.6520259,2.32782951 22.4606345,3 23.456456,3 Z M1.80443005,3 L1.80443005,3 C2.80025153,3 3.60886009,2.32782951 3.60886009,1.500144 C3.60886009,0.672170491 2.80025153,0 1.80443005,0 L1.80443005,0 C0.808608559,0 0,0.672170491 0,1.500144 C0,2.32782951 0.808608559,3 1.80443005,3 Z M37.8915181,3 L37.8915181,3 C38.8873396,3 39.69557,2.32782951 39.69557,1.500144 C39.69557,0.672170491 38.8873396,0 37.8915181,0 L37.8915181,0 C36.8953184,0 36.0870881,0.672170491 36.0870881,1.500144 C36.0870881,2.32782951 36.8953184,3 37.8915181,3 Z M45.1088601,3 L45.1088601,3 C46.1046816,3 46.9132901,2.32782951 46.9132901,1.500144 C46.9132901,0.672170491 46.1046816,0 45.1088601,0 L45.1088601,0 C44.1130386,0 43.30443,0.672170491 43.30443,1.500144 C43.30443,2.32782951 44.1130386,3 45.1088601,3 Z M30.6737979,3 L30.6737979,3 C31.6699976,3 32.478228,2.32782951 32.478228,1.500144 C32.478228,0.672170491 31.6699976,0 30.6737979,0 L30.6737979,0 C29.6779765,0 28.8697461,0.672170491 28.8697461,1.500144 C28.8697461,2.32782951 29.6779765,3 30.6737979,3 Z M52.3262021,3 L52.3262021,3 C53.3220235,3 54.1306321,2.32782951 54.1306321,1.500144 C54.1306321,0.672170491 53.3220235,0 52.3262021,0 L52.3262021,0 C51.3303806,0 50.521772,0.672170491 50.521772,1.500144 C50.521772,2.32782951 51.3303806,3 52.3262021,3 Z M59.543544,3 L59.543544,3 C60.5393655,3 61.3479741,2.32782951 61.3479741,1.500144 C61.3479741,0.672170491 60.5393655,0 59.543544,0 L59.543544,0 C58.5477226,0 57.739114,0.672170491 57.739114,1.500144 C57.739114,2.32782951 58.5477226,3 59.543544,3 Z M73.978228,3 L73.978228,3 C74.9740495,3 75.782658,2.32782951 75.782658,1.500144 C75.782658,0.672170491 74.9740495,0 73.978228,0 L73.978228,0 C72.9824065,0 72.1737979,0.672170491 72.1737979,1.500144 C72.1737979,2.32782951 72.9824065,3 73.978228,3 Z M81.19557,3 L81.19557,3 C82.1913914,3 83,2.32782951 83,1.500144 C83,0.672170491 82.1913914,0 81.19557,0 L81.19557,0 C80.1997485,0 79.3911399,0.672170491 79.3911399,1.500144 C79.3911399,2.32782951 80.1997485,3 81.19557,3 Z M66.760886,3 L66.760886,3 C67.7567075,3 68.5653161,2.32782951 68.5653161,1.500144 C68.5653161,0.672170491 67.7567075,0 66.760886,0 L66.760886,0 C65.7650645,0 64.956456,0.672170491 64.956456,1.500144 C64.956456,2.32782951 65.7650645,3 66.760886,3 Z" id="Shape"></path>
            </g>
            <g id="Group" transform="translate(120.000000, 71.000000)">
                <path d="M11,2.07469322 C11,0.929041437 10.0464973,0 8.86986143,0 L2.13013857,0 C0.953502694,0 0,0.929041437 0,2.07469322 L0,9.92530678 C0,11.0713142 0.953502694,12 2.13013857,12 L8.86986143,12 C10.0464973,12 11,11.0713142 11,9.92530678 L11,2.07469322 Z M6.73972286,4.14938645 L6.73972286,7.85025787 C6.73972286,7.85025787 4.26027714,7.85025787 4.26027714,7.85025787 C4.26027714,7.85025787 4.26027714,4.14938645 4.26027714,4.14938645 L6.73972286,4.14938645 Z" id="Shape"></path>
            </g>
            <g id="Group" transform="translate(107.000000, 75.000000)" fill="#E5097F">
                <path d="M27.7281784,4.33713248 L33.8117058,4.28786224 C34.4689765,4.282457 35.0761629,4.63716418 35.3924487,5.21125673 C35.7087345,5.78569099 35.6830062,6.48622058 35.3255553,7.03570916 L32.112613,11.972905 L9.03232634,49.0377549 C8.6608106,49.6501203 7.98775993,50.0174712 7.2697706,49.9993599 L0.432920465,49.9111957 C0.285068864,49.9074368 0.139961608,49.8876169 0,49.8520779 C0.00445956105,49.8520779 0.0089191221,49.8520779 0.0137217263,49.8517361 L0.0271004095,49.8513944 L0.0404790926,49.8510527 L0.0542008189,49.850711 L0.0545438621,49.850711 L0.0576312505,49.8503693 L0.0675795021,49.8500275 L0.0679225452,49.8500275 L0.0713529768,49.8496858 L0.0809581852,49.8493441 L0.0816442715,49.8493441 L0.0850747031,49.8490024 L0.0943368684,49.8483189 L0.0950229547,49.8483189 L0.0987964294,49.8479772 L0.108058595,49.8476355 L0.108744681,49.8472938 L0.112175113,49.846952 L0.121437278,49.8462686 L0.122123364,49.8462686 L0.125896839,49.8459269 L0.134815961,49.8452434 L0.135502047,49.8452434 L0.139275522,49.8449017 L0.148194644,49.8438765 L0.149223774,49.8438765 L0.152997248,49.8435348 L0.161573327,49.8428514 L0.162602457,49.8425097 L0.166375932,49.8421679 L0.17495201,49.8411428 L0.175638097,49.8411428 L0.17598114,49.8411428 L0.180097658,49.840801 L0.188330694,49.8397759 L0.18901678,49.8397759 L0.189702866,49.8394342 L0.193476341,49.8390924 L0.201709377,49.8380673 L0.202395463,49.8380673 L0.203081549,49.8380673 L0.206855024,49.8373838 L0.214745017,49.8363587 L0.215774146,49.8363587 L0.216460233,49.8360169 L0.220233707,49.8356752 L0.2281237,49.8346501 L0.229152829,49.8343083 L0.229838916,49.8343083 L0.23361239,49.8336249 L0.241502383,49.8325997 L0.242531513,49.832258 L0.243217599,49.832258 L0.246991074,49.8315746 L0.254881066,49.8305494 L0.255910196,49.8302077 L0.256596282,49.8302077 L0.260369757,49.8295242 L0.267916706,49.8284991 L0.269288879,49.8281573 L0.269974965,49.8281573 L0.27374844,49.8274739 L0.281295389,49.826107 L0.282667562,49.8257653 L0.283353648,49.8257653 L0.287127123,49.8250818 L0.294331029,49.823715 L0.295703202,49.823715 L0.296732331,49.8233732 L0.300505806,49.8226898 L0.307709713,49.8213229 L0.309081885,49.8209812 L0.309767971,49.8209812 L0.313884489,49.8202977 L0.320745352,49.8189309 L0.322460568,49.8185891 L0.323146655,49.8182474 L0.326920129,49.817564 L0.333780992,49.8161971 L0.335496208,49.8158554 L0.336525338,49.8158554 L0.340298812,49.8148302 L0.347159676,49.8134633 L0.348874891,49.8131216 L0.349560978,49.8127799 L0.353334452,49.8120964 L0.360195316,49.8107295 L0.361910531,49.8103878 L0.362939661,49.8100461 L0.366713136,49.8093626 L0.373230956,49.807654 L0.374946171,49.8073123 L0.375975301,49.8069706 L0.379748776,49.8062871 L0.386266596,49.8049203 L0.387981811,49.8042368 L0.389010941,49.8038951 L0.392784416,49.8032117 L0.399302236,49.801503 L0.401017451,49.8011613 L0.402389624,49.8008196 L0.406163099,49.7997944 L0.412337876,49.7984275 L0.414396135,49.7980858 L0.415425264,49.7977441 L0.419198739,49.7967189 L0.425373516,49.7950103 L0.427088731,49.7946686 L0.428460904,49.7943269 L0.432234379,49.7933017 L0.438066112,49.7915931 L0.440124371,49.7912514 L0.441496544,49.7909097 L0.445270019,49.7898845 L0.451101752,49.7881759 L0.453160011,49.7874925 L0.454532184,49.7871507 L0.457962616,49.7861256 L0.464137392,49.784417 L0.466195651,49.7840752 L0.467567824,49.7837335 L0.470998256,49.7827083 L0.476829989,49.7809997 L0.479231291,49.7803163 L0.480603464,49.7799746 L0.484033896,49.7786077 L0.489865629,49.7772408 L0.491923888,49.7765574 L0.493296061,49.7758739 L0.497069536,49.7748487 L0.502558226,49.7731401 L0.504959528,49.7724567 L0.506331701,49.772115 L0.509762132,49.7710898 L0.515250823,49.7693812 L0.517652125,49.768356 L0.519024298,49.7680143 L0.522797772,49.7669891 L0.528286463,49.7652805 L0.530344722,49.7642554 L0.532059938,49.7639137 L0.535490369,49.7628885 L0.54097906,49.7608382 L0.543380362,49.7601547 L0.544752535,49.759813 L0.548182966,49.7584461 L0.553328613,49.7567375 L0.556072959,49.7557123 L0.557788174,49.7553706 L0.560875563,49.7540037 L0.56602121,49.7522951 L0.568765556,49.7516117 L0.570480771,49.7509282 L0.573911203,49.7495613 L0.578713807,49.7478527 L0.581458152,49.7468276 L0.583173368,49.7464858 L0.5866038,49.745119 L0.591406404,49.7434103 L0.593807706,49.7423852 L0.595865965,49.7417017 L0.598953353,49.7403348 L0.604099001,49.7386262 L0.606500303,49.7376011 L0.608558562,49.7369176 L0.61164595,49.7358925 L0.616448554,49.7338421 L0.6191929,49.732817 L0.620908116,49.7321335 L0.624338547,49.7307666 L0.629141151,49.729058 L0.631542453,49.7280329 L0.633600712,49.7273494 L0.636688101,49.7259825 L0.641490705,49.7242739 L0.64423505,49.722907 L0.646293309,49.7222236 L0.649380698,49.7208567 L0.653840259,49.7191481 L0.656584604,49.7181229 L0.658642863,49.7170978 L0.661730251,49.7157309 L0.666189812,49.7140223 L0.668934158,49.7129971 L0.670992417,49.7119719 L0.674079805,49.7106051 L0.678539366,49.7088964 L0.681283711,49.7075296 L0.683685013,49.7068461 L0.686772402,49.7054792 L0.69088892,49.7034289 L0.693633265,49.7024037 L0.696034567,49.7013786 L0.699121955,49.7000117 L0.703238473,49.6983031 L0.705982819,49.6969362 L0.708384121,49.695911 L0.711128466,49.6945441 L0.715244984,49.6924938 L0.718332372,49.6911269 L0.720733674,49.6901018 L0.72347802,49.6887349 L0.727594538,49.6870263 L0.730681926,49.6856594 L0.732740185,49.6846342 L0.735827573,49.6832673 L0.739601048,49.6815587 L0.742688437,49.6798501 L0.745089739,49.6788249 L0.747834084,49.677458 L0.751950602,49.6757494 L0.75503799,49.6740408 L0.757096249,49.6730157 L0.760183638,49.6716488 L0.763957112,49.6699402 L0.767044501,49.6682316 L0.769445803,49.6672064 L0.772190148,49.6654978 L0.775963623,49.6637892 L0.779051011,49.6620806 L0.781452313,49.6610554 L0.784196659,49.6596885 L0.787970133,49.6576382 L0.791057522,49.6562713 L0.793458824,49.6549044 L0.796203169,49.6535375 L0.799976644,49.6514872 L0.803064032,49.6501203 L0.805465334,49.6487534 L0.80820968,49.6473865 L0.811640111,49.6453362 L0.815070543,49.6436276 L0.817471845,49.6422607 L0.82021619,49.6408938 L0.823646622,49.6391852 L0.82673401,49.6374766 L0.829478355,49.6361097 L0.832222701,49.6344011 L0.835310089,49.6326925 L0.838740521,49.6309839 L0.841141823,49.6292753 L0.843886168,49.6279084 L0.846973556,49.6261998 L0.850403988,49.6244912 L0.853148333,49.6227826 L0.855549635,49.6214157 L0.858980067,49.6197071 L0.862067455,49.6176567 L0.864811801,49.6162899 L0.867556146,49.6145812 L0.870643534,49.6128726 L0.874073966,49.6108223 L0.876818311,49.6094554 L0.879219613,49.6077468 L0.882307002,49.6060382 L0.885737433,49.6043296 L0.888481779,49.602621 L0.890883081,49.6009124 L0.893627426,49.5992038 L0.897057858,49.5971534 L0.900145246,49.5954448 L0.902546548,49.5940779 L0.905290893,49.5923693 L0.908721325,49.590319 L0.91146567,49.5886104 L0.913866972,49.5869018 L0.916611318,49.5851932 L0.920384792,49.5831428 L0.923129138,49.5814342 L0.92553044,49.5800673 L0.928274785,49.5783587 L0.931705216,49.5759667 L0.934792605,49.5742581 L0.936850864,49.5725495 L0.939595209,49.5708409 L0.943025641,49.5687905 L0.946113029,49.5667402 L0.948171288,49.5653733 L0.950915633,49.5636647 L0.954346065,49.5612727 L0.957433453,49.5592223 L0.959834755,49.5578554 L0.962236057,49.5561468 L0.965666489,49.5537548 L0.968753877,49.5520462 L0.970812136,49.5503376 L0.973556482,49.5489707 L0.976986913,49.5462369 L0.980074302,49.5441866 L0.982132561,49.5428197 L0.984533863,49.5411111 L0.988307337,49.538719 L0.991394726,49.5366687 L0.993452985,49.5353018 L0.995854287,49.5335932 L0.999284719,49.5308594 L1.00271515,49.5288091 L1.00443037,49.5274422 L1.00683167,49.5257336 L1.01060514,49.5233415 L1.01369253,49.5209495 L1.01575079,49.5195826 L1.01780905,49.517874 L1.02158252,49.5154819 L1.02466991,49.5130899 L1.02672817,49.511723 L1.02878643,49.5100144 L1.0325599,49.5072806 L1.03564729,49.5048886 L1.03770555,49.5035217 L1.03976381,49.5021548 L1.04353729,49.499421 L1.04662467,49.4966872 L1.04868293,49.4953204 L1.05039815,49.4939535 L1.05417162,49.4912197 L1.05760206,49.4884859 L1.05931727,49.487119 L1.06137553,49.4857521 L1.065149,49.4830184 L1.06857944,49.4802846 L1.07029465,49.4789177 L1.07200987,49.4775508 L1.07578334,49.4744753 L1.07921377,49.4720833 L1.08092899,49.4707164 L1.08264421,49.4690078 L1.08641768,49.466274 L1.08984811,49.4635402 L1.09156333,49.4621733 L1.09327854,49.4608065 L1.09739506,49.457731 L1.10082549,49.4549972 L1.10219767,49.4536303 L1.10391288,49.4522634 L1.10768636,49.4491879 L1.11145983,49.4461124 L1.112832,49.4450873 L1.11454722,49.4437204 L1.11832069,49.4403032 L1.12175113,49.4375694 L1.12346634,49.4362025 L1.12483851,49.4348356 L1.12895503,49.4317601 L1.13238546,49.4286846 L1.13375764,49.4273177 L1.13547285,49.4259508 L1.13924633,49.4225336 L1.14267676,49.4197998 L1.14404893,49.418433 L1.14576415,49.4170661 L1.14953762,49.4136489 L1.15296805,49.4105734 L1.15434023,49.4095482 L1.15605544,49.4081813 L1.15982892,49.4047641 L1.16360239,49.4016886 L1.16463152,49.4003217 L1.16600369,49.3992965 L1.17012021,49.3955376 L1.17355064,49.3924621 L1.17492282,49.3910952 L1.17629499,49.3900701 L1.18006846,49.3863111 L1.18384194,49.3832356 L1.18521411,49.3818687 L1.18624324,49.3808436 L1.19035976,49.3770846 L1.19413323,49.3736674 L1.19516236,49.3726422 L1.19653453,49.3716171 L1.20030801,49.3678581 L1.20408148,49.3644409 L1.20511061,49.3634158 L1.20648279,49.3620489 L1.21025626,49.3582899 L1.21402974,49.3548727 L1.21505886,49.3538475 L1.21608799,49.3528224 L1.22020451,49.3487217 L1.22397799,49.3453045 L1.22500712,49.3442793 L1.22603625,49.3429125 L1.23015276,49.3391535 L1.23392624,49.3353946 L1.23495537,49.3343694 L1.2359845,49.3333442 L1.23975797,49.3295853 L1.24353145,49.3258264 L1.24456058,49.3248012 L1.24558971,49.323776 L1.24970622,49.3196754 L1.25313666,49.3159164 L1.25416578,49.3148913 L1.25519491,49.3138661 L1.25931143,49.3097654 L1.26308491,49.3060065 L1.26377099,49.3049813 L1.26480012,49.3039562 L1.26891664,49.2998555 L1.27269012,49.2957548 L1.2733762,49.2950714 L1.27440533,49.2940462 L1.27817881,49.2896039 L1.28195228,49.2858449 L1.28298141,49.2848198 L1.2836675,49.2841363 L1.28778401,49.2796939 L1.29155749,49.2755933 L1.29224358,49.2745681 L1.29292966,49.2738847 L1.29704618,49.2694423 L1.30081965,49.2653416 L1.30150574,49.2643164 L1.30219183,49.263633 L1.30630834,49.2591906 L1.31008182,49.2547482 L1.31076791,49.2540648 L1.31145399,49.2533814 L1.31557051,49.2485972 L1.31934398,49.2444966 L1.32003007,49.2438131 L1.32071616,49.242788 L1.32483268,49.2383456 L1.32860615,49.2339032 L1.32929224,49.2332198 L1.32963528,49.2325363 L1.3337518,49.2277522 L1.33752527,49.2233098 L1.33821136,49.2226264 L1.3385544,49.221943 L1.34267092,49.2171588 L1.34678744,49.2123747 L1.34713048,49.2116913 L1.34781657,49.2113496 L1.35193308,49.2062238 L1.35570656,49.2017814 L1.3560496,49.2010979 L1.35639265,49.2004145 L1.36050916,49.1956304 L1.36428264,49.1908463 L1.36496872,49.1901628 L1.36531177,49.1898211 L1.36942829,49.1846953 L1.37320176,49.1799112 L1.3735448,49.1792277 L1.37388785,49.178886 L1.37800436,49.1734185 L1.38177784,49.1689761 L1.38212088,49.1682926 L1.38280697,49.1679509 L1.38692349,49.1624834 L1.39069696,49.1576993 L1.39138305,49.1570158 L1.39549957,49.1515483 L1.39893,49.1464224 L1.39961608,49.145739 L1.4037326,49.1402715 L1.40750608,49.1351456 L1.40819216,49.1344622 L1.41230868,49.1286529 L1.41608216,49.1238688 L1.4164252,49.1231854 L1.42054172,49.1173761 L1.42431519,49.1122503 L1.42465823,49.1119085 L1.4291178,49.1057576 L1.43254823,49.1009735 L1.43289127,49.10029 L1.43735083,49.094139 L1.44078126,49.0893549 L1.44112431,49.0890132 L1.44558387,49.0825205 L1.44867126,49.0773946 L1.4490143,49.0773946 L1.4538169,49.0702185 L1.45690429,49.0657761 L1.45690429,49.0654344 L1.46204994,49.0579165 L1.46479428,49.0538158 C1.46719559,49.0497152 1.46993993,49.0459562 1.47268428,49.0418556 C1.47268428,49.0418556 28.8091074,7.034684 28.8091074,7.034684 C29.1669014,6.48519542 29.1926297,5.7843241 28.8763439,5.21023156 C28.7874957,5.04928061 28.6760067,4.90541576 28.5470225,4.7820542 C28.5418768,4.7772701 28.5367312,4.772486 28.5315855,4.76770189 C28.5058573,4.74378137 28.479786,4.72054429 28.4526856,4.69833238 L28.4458247,4.69252311 L28.4417082,4.68944761 C28.424213,4.6750953 28.4063748,4.6610847 28.3881935,4.64741583 C28.3645235,4.6296463 28.3408535,4.61256022 28.3164975,4.59615757 C28.2911123,4.57907148 28.265041,4.56232712 28.2389697,4.54660792 L28.2290215,4.54045693 C28.2118693,4.53020527 28.1943741,4.52029534 28.1765358,4.51038541 C28.1370859,4.48851522 28.0969498,4.46835364 28.0557847,4.44955894 L28.0451503,4.44477483 C28.0334869,4.43964901 28.0218234,4.43452318 28.0098169,4.42939736 C27.9885482,4.42051259 27.9669365,4.41162782 27.9449817,4.4034265 C27.9319461,4.3986424 27.9185674,4.39385829 27.9048457,4.38907419 C27.8506448,4.36993777 27.7954149,4.35353513 27.7394989,4.33986626 L27.7281784,4.33713248 Z M23.5008576,0.142156249 L21.357524,4.33474043 L14.8136327,4.3877073 C14.8136327,4.3877073 16.9847528,0.141131084 16.9847528,0.141131084 L47,0" id="Shape"></path>
            </g>
            <g id="Group" transform="translate(155.000000, 15.000000)" fill="#E5097F">
                <path d="M1.74753127,38.0237326 C1.72053983,37.9897635 1.70605662,37.971235 1.70605662,37.971235 L1.70605662,1.78835101 C1.70605662,0.804620707 0.943712969,0.00583307123 0,0.00102936551 L6.25246873,-3.55271368e-15 C7.1961817,0.00480370572 7.95885451,0.803591342 7.95885451,1.78732165 L7.95885451,34.0627341 C7.98584595,34.3705144 8,34.7119206 8,35.090384 L8,58.2130215 C8,59.1967518 7.23732719,59.9955394 6.29361422,60 L0.0411454905,59.9989706 C0.98485846,59.9941669 1.74753127,59.1953793 1.74753127,58.2119921 L1.74753127,38.0237326 Z" id="Path"></path>
            </g>
            <g id="Group" transform="translate(151.000000, 18.000000)" fill="#959595">
                <polygon id="Path" points="0.0698924731 0.208 0 0.192 0.4 0.192"></polygon>
            </g>
            <g id="Group" transform="translate(8.000000, 15.000000)" fill="#E5097F">
                <path d="M100.127747,109.999652 C99.8899041,110.004389 99.6486241,109.960834 99.4173116,109.865492 C98.6199191,109.536598 98.1710422,108.686754 98.3497681,107.844455 C98.3497681,107.844455 104.692475,77.9586153 104.692475,77.9586153 C100.060725,77.9685611 89.7719561,77.9905102 89.7719561,77.9905102 C89.1065458,77.991882 88.4954407,77.6252625 88.1850763,77.0381224 C87.8743682,76.4506395 87.9159564,75.7403784 88.2926556,75.1930212 L98.5394925,60.3077181 L98.5394925,60.3077181 L1.7900086,60.3077181 C0.80151691,60.3077181 0,59.5079456 0,58.5216052 L0,1.7861129 C0,0.799772522 0.80151691,0 1.7900086,0 L147.209991,0 C147.331319,0 147.449897,0.0120034469 147.56435,0.0353244296 L147.575348,0.0373821633 C148.388895,0.205773376 149,0.92460837 149,1.7861129 L149,58.1807073 C149,59.1639611 148.203639,59.9623618 147.21824,59.9671632 L117.145202,60.1088038 C117.145202,60.1088038 114.969902,64.3707134 114.969902,64.3707134 L121.526393,64.3175553 L127.909313,64.319956 C128.392904,64.4351891 128.813941,64.7496794 129.059689,65.1962076 C129.376584,65.7723731 129.350806,66.4757751 128.992323,67.0272477 C128.992323,67.0272477 101.603267,109.186097 101.603267,109.186097 C101.272624,109.695043 100.718574,109.987241 100.141495,109.999652 L100.127747,109.999652 Z M99.5087368,109.74865 C99.5639646,109.788327 99.6191924,109.826352 99.6744202,109.864376 C99.6191924,109.826352 99.5639646,109.788327 99.5087368,109.74865 Z M99.3138395,109.590798 L99.31881,109.595758 L99.3138395,109.590798 L99.288987,109.567653 L99.3138395,109.590798 Z M99.2790902,109.557153 L99.2973154,109.575339 L99.2790902,109.557153 L99.2575513,109.537315 L99.2790902,109.557153 Z M99.1430361,109.420679 C99.1972018,109.477155 99.2524296,109.532605 99.3087195,109.586001 C99.2524296,109.532605 99.1972018,109.477155 99.1430361,109.420679 Z M99.1177431,109.383371 C99.1508798,109.421396 99.1840165,109.45942 99.2171532,109.497444 L99.1757323,109.4495 C99.1558503,109.428008 99.1359683,109.406517 99.1177431,109.383371 Z M112.051858,67.9669461 L124.179097,67.8685179 C120.103459,74.1422051 110.074531,89.5793238 103.853838,99.154302 C105.860036,89.7003871 108.654003,76.5377502 108.654003,76.5377502 C108.765707,76.0099415 108.632694,75.4601836 108.292084,75.0414348 C107.951129,74.622686 107.439355,74.3802163 106.898709,74.3812452 L93.1746222,74.4107394 C93.1746222,74.4107394 103.416304,59.5326384 103.416304,59.5326384 C103.792659,58.9859671 103.834591,58.2763919 103.524914,57.6895948 C103.215581,57.1024548 102.605507,56.7351493 101.940784,56.7351493 L3.58001721,56.7351493 C3.58001721,56.7351493 3.58001721,13.0199674 3.58001721,3.57222581 L145.419639,3.57222581 C145.419639,3.57222581 145.419639,56.4031683 145.419639,56.4031683 C145.419639,56.4031683 116.036758,56.5417224 116.036758,56.5417224 C115.366536,56.544809 114.754056,56.9213742 114.449878,57.5170882 L110.44195,65.3700861 C110.158051,65.9260172 110.185891,66.5896363 110.514815,67.1201887 C110.843739,67.651084 111.426317,67.9720905 112.051858,67.9669461 Z" id="Shape"></path>
            </g>
            <g id="Group" transform="translate(18.000000, 34.000000)" fill="#E5097F" fill-rule="nonzero">
                <path d="M0.0690024071,16.32 C0.575135063,16.4797714 1.10403851,16.6056 1.65605777,16.6971429 C2.11595881,16.8113143 2.63934207,16.9028571 3.22586253,16.9714286 C3.81238299,17.04 4.40476865,17.0742857 5.00267451,17.0742857 C6.06082642,17.0742857 6.58972987,16.6854857 6.58972987,15.9085714 C6.58972987,15.6113143 6.42860925,15.3085714 6.10671302,15 C5.7848168,14.6914286 5.37632255,14.3485714 4.8819203,13.9714286 C4.38751805,13.5942857 3.85826959,13.1770286 3.29486494,12.72 C2.73146028,12.2626286 2.20221182,11.7370286 1.70780957,11.1428571 C1.21340733,10.5483429 0.804913078,9.87977143 0.483016849,9.13714286 C0.16112062,8.39417143 -7.10542736e-15,7.54285714 -7.10542736e-15,6.58285714 C-7.10542736e-15,5.50834286 0.195621824,4.56 0.58652046,3.73714286 C0.977419096,2.91428571 1.51805296,2.22857143 2.20807703,1.68 C2.8981011,1.13142857 3.70887938,0.714171429 4.64041187,0.428571429 C5.57194437,0.142628571 6.56661407,0 7.62476598,0 C8.17678524,0 8.72880449,0.0284571429 9.28082375,0.0857142857 C9.83284301,0.142628571 10.3272453,0.194057143 10.7643755,0.24 C11.2705082,0.308571429 11.7649104,0.377142857 12.2479273,0.445714286 L12.2479273,6.85714286 C12.0640358,6.83417143 11.8570286,6.8112 11.6269056,6.78857143 C11.4430142,6.7656 11.236007,6.74262857 11.0058839,6.72 C10.7757609,6.69702857 10.5342525,6.68571429 10.2813587,6.68571429 C10.1433538,6.68571429 9.97084782,6.6912 9.7638406,6.70285714 C9.55683338,6.71417143 9.36121155,6.74262857 9.17732014,6.78857143 C8.99342872,6.83417143 8.8323081,6.91405714 8.69430329,7.02857143 C8.55629848,7.14274286 8.48729607,7.30285714 8.48729607,7.50857143 C8.48729607,7.69131429 8.64255148,7.92 8.95306232,8.19428571 C9.26357315,8.46857143 9.64308639,8.78845714 10.091602,9.15428571 C10.5401177,9.51977143 11.0345199,9.94285714 11.5751538,10.4228571 C12.1157876,10.9028571 12.6101899,11.4514286 13.0587055,12.0685714 C13.5072212,12.6857143 13.8867344,13.3827429 14.1972453,14.16 C14.5077561,14.9369143 14.6630115,15.8057143 14.6630115,16.7657143 C14.6630115,17.7713143 14.5018909,18.7141714 14.1799947,19.5942857 C13.8580984,20.4740571 13.357831,21.24 12.6791923,21.8914286 C12.0005536,22.5428571 11.1325033,23.0571429 10.0743514,23.4342857 C9.01619952,23.8114286 7.76277079,24 6.31372025,24 C5.43980476,24 4.62902648,23.9598857 3.8813854,23.88 C3.13374432,23.7997714 2.47270126,23.7027429 1.89756619,23.5885714 C1.23065793,23.4740571 0.621021664,23.3369143 0.0690024071,23.1771429 L0.0690024071,16.32 Z" id="Path"></path>
                <path d="M25.6343942,24 C24.1853437,24 22.8742979,23.8169143 21.701257,23.4514286 C20.5282161,23.0856 19.5276812,22.5370286 18.6996523,21.8057143 C17.8716234,21.0740571 17.2333512,20.1483429 16.7848355,19.0285714 C16.3363199,17.9084571 16.112062,16.5942857 16.112062,15.0857143 L16.112062,0.548571429 L23.4608184,0.548571429 L23.4608184,14.7771429 C23.4608184,15.5770286 23.6274592,16.1883429 23.9610859,16.6114286 C24.2947125,17.0341714 24.8522519,17.2457143 25.6343942,17.2457143 C26.4165365,17.2457143 26.974076,17.0341714 27.3077026,16.6114286 C27.6413292,16.1883429 27.80797,15.5770286 27.80797,14.7771429 L27.80797,0.548571429 L35.1912276,0.548571429 L35.1912276,15.0857143 C35.1912276,16.5942857 34.9669698,17.9084571 34.5184541,19.0285714 C34.0699385,20.1483429 33.425801,21.0740571 32.5863867,21.8057143 C31.7469725,22.5370286 30.7405723,23.0856 29.5675314,23.4514286 C28.3944905,23.8169143 27.0834448,24 25.6343942,24 Z" id="Path"></path>
                <path d="M55.4089329,9.25714286 C55.4089329,10.8342857 55.1329232,12.1769143 54.580904,13.2857143 C54.0288847,14.3941714 53.2757235,15.2914286 52.3210752,15.9771429 C51.3664269,16.6628571 50.2510029,17.1654857 48.9744584,17.4857143 C47.6979139,17.8056 46.3237309,17.9657143 44.8515646,17.9657143 L44.8515646,23.4171429 L37.5028082,23.4171429 L37.5028082,0.548571429 L44.8515646,0.548571429 C46.3237309,0.548571429 47.6979139,0.708342857 48.9744584,1.02857143 C50.2510029,1.34845714 51.3664269,1.85142857 52.3210752,2.53714286 C53.2757235,3.22285714 54.0288847,4.11977143 54.580904,5.22857143 C55.1329232,6.33702857 55.4089329,7.68 55.4089329,9.25714286 Z M44.8515646,11.7942857 L45.1620754,11.7942857 C46.1281091,11.7942857 46.8239984,11.5714286 47.2493982,11.1257143 C47.6747981,10.68 47.8876705,10.0570286 47.8876705,9.25714286 C47.8876705,8.45691429 47.6747981,7.83428571 47.2493982,7.38857143 C46.8239984,6.94285714 46.1281091,6.72 45.1620754,6.72 L44.8515646,6.72 L44.8515646,11.7942857 Z" id="Shape"></path>
                <polygon id="Path" points="57.133993 0.548571429 70.692966 0.548571429 70.692966 6.54857143 64.4827494 6.54857143 64.4827494 9.08571429 70.5894624 9.08571429 70.5894624 14.7771429 64.4827494 14.7771429 64.4827494 17.4171429 70.9344745 17.4171429 70.9344745 23.4171429 57.133993 23.4171429"></polygon>
                <path d="M73.0045467,0.548571429 L80.9398235,0.548571429 C82.4119898,0.548571429 83.7747874,0.742628571 85.0282161,1.13142857 C86.2816448,1.51988571 87.3684327,2.09142857 88.2885798,2.84571429 C89.2087269,3.6 89.927387,4.5312 90.4449051,5.64 C90.9624231,6.74845714 91.2211821,8.02285714 91.2211821,9.46285714 C91.2211821,10.6056 91.0600615,11.5769143 90.7381653,12.3771429 C90.4162691,13.1770286 90.0595266,13.8397714 89.668628,14.3657143 C89.2087269,14.9598857 88.6912089,15.4628571 88.1160738,15.8742857 L92.4287243,23.4171429 L83.8034234,23.4171429 L80.353303,17.6228571 L80.353303,23.4171429 L73.0045467,23.4171429 L73.0045467,0.548571429 Z M80.353303,11.7942857 L80.7328163,11.7942857 C81.6067317,11.7942857 82.3485076,11.5998857 82.9581439,11.2114286 C83.5677802,10.8226286 83.8724258,10.1712 83.8724258,9.25714286 C83.8724258,8.34274286 83.5677802,7.69131429 82.9581439,7.30285714 C82.3485076,6.91405714 81.6067317,6.72 80.7328163,6.72 L80.353303,6.72 L80.353303,11.7942857 Z" id="Shape"></path>
                <polygon id="Path" points="93.1187483 0.548571429 106.677721 0.548571429 106.677721 6.54857143 100.467505 6.54857143 100.467505 9.08571429 106.574218 9.08571429 106.574218 14.7771429 100.467505 14.7771429 100.467505 17.4171429 106.91923 17.4171429 106.91923 23.4171429 93.1187483 23.4171429"></polygon>
                <path d="M108.989302,23.4171429 L108.989302,0.548571429 L115.372025,0.548571429 C117.534215,0.548571429 119.460417,0.788571429 121.150976,1.26857143 C122.841535,1.74857143 124.26747,2.46857143 125.429125,3.42857143 C126.590781,4.38857143 127.476082,5.58274286 128.085718,7.01142857 C128.695354,8.43977143 129,10.0913143 129,11.9657143 C129,13.8397714 128.695354,15.4913143 128.085718,16.92 C127.476082,18.3483429 126.590781,19.5428571 125.429125,20.5028571 C124.26747,21.4628571 122.841535,22.1883429 121.150976,22.68 C119.460417,23.1713143 117.534215,23.4171429 115.372025,23.4171429 L108.989302,23.4171429 Z M116.338058,16.9028571 C118.063118,16.9028571 119.39728,16.4969143 120.340198,15.6857143 C121.283116,14.8741714 121.754747,13.6340571 121.754747,11.9657143 C121.754747,10.2970286 121.283116,9.06274286 120.340198,8.26285714 C119.39728,7.46262857 118.063118,7.06285714 116.338058,7.06285714 L116.338058,16.9028571 Z" id="Shape"></path>
            </g>
            <g id="Group" transform="translate(0.000000, 86.000000)" fill="#E5097F">
                <path d="M9.02177202,3 L9.02177202,3 C10.0175935,3 10.8262021,2.32782951 10.8262021,1.500144 C10.8262021,0.672170491 10.0175935,0 9.02177202,0 L9.02177202,0 C8.02595053,0 7.21734197,0.672170491 7.21734197,1.500144 C7.21734197,2.32782951 8.02595053,3 9.02177202,3 Z M16.239114,3 L16.239114,3 C17.2349355,3 18.043544,2.32782951 18.043544,1.500144 C18.043544,0.672170491 17.2349355,0 16.239114,0 L16.239114,0 C15.2432925,0 14.4346839,0.672170491 14.4346839,1.500144 C14.4346839,2.32782951 15.2432925,3 16.239114,3 Z M23.456456,3 L23.456456,3 C24.4522774,3 25.260886,2.32782951 25.260886,1.500144 C25.260886,0.672170491 24.4522774,0 23.456456,0 L23.456456,0 C22.4606345,0 21.6520259,0.672170491 21.6520259,1.500144 C21.6520259,2.32782951 22.4606345,3 23.456456,3 Z M1.80443005,3 L1.80443005,3 C2.80025153,3 3.60886009,2.32782951 3.60886009,1.500144 C3.60886009,0.672170491 2.80025153,0 1.80443005,0 L1.80443005,0 C0.808608559,0 0,0.672170491 0,1.500144 C0,2.32782951 0.808608559,3 1.80443005,3 Z M37.8915181,3 L37.8915181,3 C38.8873396,3 39.69557,2.32782951 39.69557,1.500144 C39.69557,0.672170491 38.8873396,0 37.8915181,0 L37.8915181,0 C36.8953184,0 36.0870881,0.672170491 36.0870881,1.500144 C36.0870881,2.32782951 36.8953184,3 37.8915181,3 Z M45.1088601,3 L45.1088601,3 C46.1046816,3 46.9132901,2.32782951 46.9132901,1.500144 C46.9132901,0.672170491 46.1046816,0 45.1088601,0 L45.1088601,0 C44.1130386,0 43.30443,0.672170491 43.30443,1.500144 C43.30443,2.32782951 44.1130386,3 45.1088601,3 Z M30.6737979,3 L30.6737979,3 C31.6699976,3 32.478228,2.32782951 32.478228,1.500144 C32.478228,0.672170491 31.6699976,0 30.6737979,0 L30.6737979,0 C29.6779765,0 28.8697461,0.672170491 28.8697461,1.500144 C28.8697461,2.32782951 29.6779765,3 30.6737979,3 Z M52.3262021,3 L52.3262021,3 C53.3220235,3 54.1306321,2.32782951 54.1306321,1.500144 C54.1306321,0.672170491 53.3220235,0 52.3262021,0 L52.3262021,0 C51.3303806,0 50.521772,0.672170491 50.521772,1.500144 C50.521772,2.32782951 51.3303806,3 52.3262021,3 Z M59.543544,3 L59.543544,3 C60.5393655,3 61.3479741,2.32782951 61.3479741,1.500144 C61.3479741,0.672170491 60.5393655,0 59.543544,0 L59.543544,0 C58.5477226,0 57.739114,0.672170491 57.739114,1.500144 C57.739114,2.32782951 58.5477226,3 59.543544,3 Z M73.978228,3 L73.978228,3 C74.9740495,3 75.782658,2.32782951 75.782658,1.500144 C75.782658,0.672170491 74.9740495,0 73.978228,0 L73.978228,0 C72.9824065,0 72.1737979,0.672170491 72.1737979,1.500144 C72.1737979,2.32782951 72.9824065,3 73.978228,3 Z M81.19557,3 L81.19557,3 C82.1913914,3 83,2.32782951 83,1.500144 C83,0.672170491 82.1913914,0 81.19557,0 L81.19557,0 C80.1997485,0 79.3911399,0.672170491 79.3911399,1.500144 C79.3911399,2.32782951 80.1997485,3 81.19557,3 Z M66.760886,3 L66.760886,3 C67.7567075,3 68.5653161,2.32782951 68.5653161,1.500144 C68.5653161,0.672170491 67.7567075,0 66.760886,0 L66.760886,0 C65.7650645,0 64.956456,0.672170491 64.956456,1.500144 C64.956456,2.32782951 65.7650645,3 66.760886,3 Z" id="Shape"></path>
            </g>
        </g>
    </g>
</svg>